# xmcd CD database file
#
# Track frame offsets:
#	150
#	10982
#	31164
#	46246
#	66106
#	83249
#	100893
#	112445
#	122776
#	135629
#	147518
#	164096
#	182022
#	200477
#	218399
#	241376
#
# Disc length: 4108 seconds
#
# Revision: 0
# Processed by: cddbd v1.5.1PL0 Copyright (c) Steve Scherf et al.
# Submitted via: CDex 1.51
#
DISCID=e9100a10
DTITLE=Various Artist - Brew, BBQ, and Blues
DYEAR=2003
DGENRE=Blues
TTITLE0=Louis Jordan - Chicken Back
TTITLE1=Buddy Guy - Damn Right, I've Got the Blues
TTITLE2=Eddie 'Cleanhead' Vinson - Juicehead Baby
TTITLE3=Etta James - Hoochie Coochie Gal
TTITLE4=Howard Tate - Mama Was Right
TTITLE5=Taj Mahal - Blues with a Feeling
TTITLE6=Elmore James - Shake Your Money Maker
TTITLE7=Little Richard - Get Rich Quick
TTITLE8=Albert Ammons and Pete Johnson - Walkin' the Boogie
TTITLE9=Arthur Crudup - Dust My Broom
TTITLE10=Joe Williams - Everyday I Have the Blues
TTITLE11=Nina Simone - Blues for Mama
TTITLE12=Taj Mahal - Blue Light Boogie
TTITLE13=Etta James - Don't Touch Me
TTITLE14=Elmore James - Fine Little Mama
TTITLE15=DATA
EXTD=YEAR: 2003
EXTT0=
EXTT1=
EXTT2=
EXTT3=
EXTT4=
EXTT5=
EXTT6=
EXTT7=
EXTT8=
EXTT9=
EXTT10=
EXTT11=
EXTT12=
EXTT13=
EXTT14=
EXTT15=
PLAYORDER=
